<svg xmlns="http://www.w3.org/2000/svg" viewBox="0 0 500 480" width="500" height="480" fill="none">
  <defs>
    <radialGradient id="hmBg" cx="35%" cy="45%" r="50%">
      <stop offset="0%" stop-color="#0d9488" stop-opacity="0.18"/>
      <stop offset="100%" stop-color="#0d9488" stop-opacity="0"/>
    </radialGradient>
    <linearGradient id="hmDesk" x1="0" y1="0" x2="0" y2="1">
      <stop offset="0%" stop-color="#12304a"/>
      <stop offset="100%" stop-color="#0c2236"/>
    </linearGradient>
    <linearGradient id="hmMug" x1="0" y1="0" x2="1" y2="0">
      <stop offset="0%"   stop-color="#0c7a70"/>
      <stop offset="45%"  stop-color="#0d9488"/>
      <stop offset="100%" stop-color="#0a6e64"/>
    </linearGradient>
  </defs>

  <!-- Ambient glow -->
  <ellipse cx="200" cy="195" rx="195" ry="175" fill="url(#hmBg)"/>

  <!-- ══ DESK WITH PERSPECTIVE ══ -->
  <!-- Top surface (trapezoid — far edge narrower) -->
  <path d="M28 318 L472 318 L455 298 L45 298 Z" fill="url(#hmDesk)"/>
  <!-- Far edge highlight (catches ambient light) -->
  <path d="M45 298 L455 298" stroke="#2dd4bf" stroke-width="1.5" opacity="0.28"/>
  <!-- Front face of desk (thickness) -->
  <rect x="28" y="318" width="444" height="22" rx="0" fill="#091c2a"/>
  <!-- Front top edge -->
  <path d="M28 318 L472 318" stroke="#1a3d54" stroke-width="1" opacity="0.6"/>
  <!-- Bottom edge -->
  <rect x="28" y="336" width="444" height="4" rx="2" fill="#061318"/>
  <!-- Desk legs -->
  <rect x="55" y="340" width="16" height="72" rx="5" fill="#071520"/>
  <rect x="429" y="340" width="16" height="72" rx="5" fill="#071520"/>
  <!-- Monitor glow spill on desk surface -->
  <ellipse cx="215" cy="308" rx="115" ry="7" fill="#2dd4bf" opacity="0.055"/>

  <!-- ══ MONITOR STAND ══ -->
  <ellipse cx="215" cy="302" rx="54" ry="6" fill="#000" opacity="0.15"/>
  <!-- Stand base pill -->
  <path d="M175 300 Q215 294 255 300 L257 308 L173 308 Z" fill="#0d9488" opacity="0.75"/>
  <!-- Stand pole -->
  <rect x="207" y="268" width="16" height="33" rx="4" fill="#125f58"/>
  <!-- Pole edge highlight -->
  <rect x="209" y="268" width="5"  height="33" rx="2" fill="#1a8a80" opacity="0.45"/>

  <!-- ══ MONITOR ══ -->
  <!-- Drop shadow -->
  <rect x="64" y="62" width="314" height="212" rx="16" fill="#000" opacity="0.22" transform="translate(5,7)"/>
  <!-- Outer bezel -->
  <rect x="64" y="55" width="314" height="212" rx="16" fill="#0a1e2c"/>
  <!-- Teal accent border -->
  <rect x="64" y="55" width="314" height="212" rx="16" fill="none" stroke="#2dd4bf" stroke-width="1.5" opacity="0.48"/>
  <!-- Screen glass -->
  <rect x="72" y="63" width="298" height="196" rx="12" fill="#040d10"/>
  <!-- Screen top bloom -->
  <rect x="72" y="63" width="298" height="28" rx="12" fill="#2dd4bf" opacity="0.04"/>

  <!-- ── VS CODE: TITLE BAR ── -->
  <rect x="72"  y="63"  width="298" height="20" rx="12" fill="#0c1e2c"/>
  <rect x="72"  y="73"  width="298" height="10" fill="#0c1e2c"/>
  <circle cx="88"  cy="73" r="4.5" fill="#f87171" opacity="0.88"/>
  <circle cx="103" cy="73" r="4.5" fill="#fbbf24" opacity="0.88"/>
  <circle cx="118" cy="73" r="4.5" fill="#2dd4bf" opacity="0.88"/>
  <!-- Menu bar (File Edit View …) -->
  <rect x="136" y="69" width="18" height="5" rx="1.5" fill="#94a3b8" opacity="0.3"/>
  <rect x="158" y="69" width="14" height="5" rx="1.5" fill="#94a3b8" opacity="0.3"/>
  <rect x="176" y="69" width="16" height="5" rx="1.5" fill="#94a3b8" opacity="0.3"/>
  <rect x="196" y="69" width="12" height="5" rx="1.5" fill="#94a3b8" opacity="0.3"/>
  <!-- Title center -->
  <rect x="232" y="68" width="66" height="7" rx="2" fill="#1a3548" opacity="0.6"/>

  <!-- ── VS CODE: TAB BAR ── -->
  <rect x="72" y="83" width="298" height="17" fill="#0b1c28"/>
  <!-- Active tab (index.vue) -->
  <rect x="80"  y="83" width="86" height="17" rx="3" fill="#0d2535"/>
  <rect x="80"  y="97" width="86" height="3"  fill="#2dd4bf" opacity="0.85"/>
  <rect x="86"  y="87" width="11" height="8"  rx="2" fill="#fbbf24" opacity="0.75"/>
  <rect x="101" y="87" width="44" height="7"  rx="2" fill="#94a3b8" opacity="0.5"/>
  <rect x="147" y="87" width="9"  height="7"  rx="2" fill="#94a3b8" opacity="0.28"/>
  <!-- Inactive tab 1 -->
  <rect x="170" y="83" width="76" height="17" rx="3" fill="#071420"/>
  <rect x="176" y="87" width="11" height="8"  rx="2" fill="#2dd4bf" opacity="0.5"/>
  <rect x="191" y="87" width="36" height="7"  rx="2" fill="#94a3b8" opacity="0.35"/>
  <!-- Inactive tab 2 -->
  <rect x="250" y="83" width="70" height="17" rx="3" fill="#071420"/>
  <rect x="256" y="87" width="11" height="8"  rx="2" fill="#f87171" opacity="0.5"/>
  <rect x="271" y="87" width="34" height="7"  rx="2" fill="#94a3b8" opacity="0.32"/>

  <!-- ── VS CODE: ACTIVITY BAR (22px, far left) ── -->
  <rect x="72" y="100" width="22" height="152" fill="#081624"/>
  <!-- Explorer (active) -->
  <rect x="77" y="108" width="12" height="12" rx="2" fill="#2dd4bf" opacity="0.82"/>
  <!-- Other icons -->
  <rect x="77" y="126" width="12" height="12" rx="2" fill="#94a3b8" opacity="0.3"/>
  <rect x="77" y="144" width="12" height="12" rx="2" fill="#94a3b8" opacity="0.3"/>
  <rect x="77" y="162" width="12" height="12" rx="2" fill="#94a3b8" opacity="0.3"/>
  <!-- Bottom icons -->
  <rect x="77" y="220" width="12" height="12" rx="2" fill="#94a3b8" opacity="0.22"/>
  <rect x="77" y="236" width="12" height="12" rx="2" fill="#94a3b8" opacity="0.22"/>

  <!-- ── VS CODE: FILE EXPLORER (72px) ── -->
  <rect x="94" y="100" width="72" height="152" fill="#0a1d2c"/>
  <!-- EXPLORER header -->
  <rect x="98"  y="105" width="46" height="5"  rx="1.5" fill="#94a3b8" opacity="0.42"/>
  <rect x="149" y="105" width="10" height="5"  rx="1.5" fill="#94a3b8" opacity="0.28"/>
  <!-- Folder: src -->
  <rect x="98"  y="116" width="8"  height="8"  rx="1.5" fill="#fbbf24" opacity="0.72"/>
  <rect x="110" y="117" width="42" height="6"  rx="1.5" fill="#e2e8f0" opacity="0.45"/>
  <!-- components (sub-folder) -->
  <rect x="102" y="128" width="7"  height="7"  rx="1.5" fill="#fbbf24" opacity="0.58"/>
  <rect x="113" y="129" width="38" height="5"  rx="1.5" fill="#94a3b8" opacity="0.42"/>
  <!-- active file row -->
  <rect x="94"  y="139" width="72" height="12" fill="#0d9488" opacity="0.18"/>
  <rect x="106" y="141" width="6"  height="7"  rx="1" fill="#2dd4bf" opacity="0.82"/>
  <rect x="116" y="142" width="42" height="5"  rx="1.5" fill="#2dd4bf" opacity="0.52"/>
  <!-- More files -->
  <rect x="106" y="155" width="6"  height="7"  rx="1" fill="#2dd4bf" opacity="0.6"/>
  <rect x="116" y="156" width="36" height="5"  rx="1.5" fill="#94a3b8" opacity="0.38"/>
  <rect x="106" y="167" width="6"  height="7"  rx="1" fill="#f87171" opacity="0.58"/>
  <rect x="116" y="168" width="32" height="5"  rx="1.5" fill="#94a3b8" opacity="0.36"/>
  <rect x="106" y="179" width="6"  height="7"  rx="1" fill="#fbbf24" opacity="0.55"/>
  <rect x="116" y="180" width="40" height="5"  rx="1.5" fill="#94a3b8" opacity="0.34"/>
  <!-- views folder -->
  <rect x="102" y="191" width="7"  height="7"  rx="1.5" fill="#fbbf24" opacity="0.55"/>
  <rect x="113" y="192" width="34" height="5"  rx="1.5" fill="#94a3b8" opacity="0.38"/>
  <rect x="106" y="203" width="6"  height="7"  rx="1" fill="#2dd4bf" opacity="0.5"/>
  <rect x="116" y="204" width="38" height="5"  rx="1.5" fill="#94a3b8" opacity="0.32"/>
  <rect x="106" y="215" width="6"  height="7"  rx="1" fill="#2dd4bf" opacity="0.45"/>
  <rect x="116" y="216" width="44" height="5"  rx="1.5" fill="#94a3b8" opacity="0.3"/>
  <rect x="106" y="227" width="6"  height="7"  rx="1" fill="#f87171" opacity="0.45"/>
  <rect x="116" y="228" width="30" height="5"  rx="1.5" fill="#94a3b8" opacity="0.28"/>
  <rect x="106" y="239" width="6"  height="7"  rx="1" fill="#fbbf24" opacity="0.4"/>
  <rect x="116" y="240" width="36" height="5"  rx="1.5" fill="#94a3b8" opacity="0.28"/>

  <!-- ── VS CODE: CODE EDITOR (with line numbers + minimap) ── -->
  <rect x="166" y="100" width="204" height="152" fill="#040d10"/>
  <!-- Line number gutter -->
  <rect x="166" y="100" width="22" height="152" fill="#061318"/>
  <!-- Line numbers -->
  <rect x="170" y="106" width="12" height="4" rx="1" fill="#94a3b8" opacity="0.2"/>
  <rect x="170" y="116" width="12" height="4" rx="1" fill="#94a3b8" opacity="0.2"/>
  <rect x="170" y="126" width="12" height="4" rx="1" fill="#94a3b8" opacity="0.2"/>
  <rect x="170" y="136" width="12" height="4" rx="1" fill="#94a3b8" opacity="0.2"/>
  <rect x="170" y="146" width="12" height="4" rx="1" fill="#94a3b8" opacity="0.2"/>
  <rect x="170" y="156" width="12" height="4" rx="1" fill="#94a3b8" opacity="0.2"/>
  <rect x="170" y="166" width="12" height="4" rx="1" fill="#94a3b8" opacity="0.2"/>
  <rect x="170" y="176" width="12" height="4" rx="1" fill="#94a3b8" opacity="0.2"/>
  <rect x="170" y="186" width="12" height="4" rx="1" fill="#94a3b8" opacity="0.2"/>
  <rect x="170" y="196" width="12" height="4" rx="1" fill="#94a3b8" opacity="0.2"/>
  <rect x="170" y="206" width="12" height="4" rx="1" fill="#94a3b8" opacity="0.2"/>
  <rect x="170" y="216" width="12" height="4" rx="1" fill="#94a3b8" opacity="0.2"/>
  <rect x="170" y="226" width="12" height="4" rx="1" fill="#94a3b8" opacity="0.2"/>
  <rect x="170" y="236" width="12" height="4" rx="1" fill="#94a3b8" opacity="0.2"/>
  <rect x="170" y="246" width="12" height="4" rx="1" fill="#94a3b8" opacity="0.2"/>
  <!-- CODE LINES -->
  <rect x="192" y="104" width="26" height="6" rx="2" fill="#2dd4bf"/>
  <rect x="222" y="104" width="12" height="6" rx="2" fill="#e2e8f0" opacity="0.5"/>
  <rect x="238" y="104" width="32" height="6" rx="2" fill="#fbbf24" opacity="0.9"/>
  <rect x="192" y="114" width="26" height="6" rx="2" fill="#2dd4bf"/>
  <rect x="222" y="114" width="18" height="6" rx="2" fill="#e2e8f0" opacity="0.5"/>
  <rect x="244" y="114" width="8"  height="6" rx="2" fill="#fbbf24" opacity="0.8"/>
  <rect x="192" y="124" width="32" height="6" rx="2" fill="#2dd4bf"/>
  <rect x="228" y="124" width="22" height="6" rx="2" fill="#e2e8f0" opacity="0.55"/>
  <rect x="254" y="124" width="8"  height="6" rx="1.5" fill="#fbbf24" opacity="0.8"/>
  <rect x="200" y="134" width="24" height="6" rx="2" fill="#2dd4bf"/>
  <rect x="228" y="134" width="30" height="6" rx="2" fill="#e2e8f0" opacity="0.55"/>
  <rect x="262" y="134" width="6"  height="6" rx="1.5" fill="#fbbf24" opacity="0.7"/>
  <rect x="272" y="134" width="34" height="6" rx="2" fill="#fbbf24" opacity="0.8"/>
  <rect x="200" y="144" width="18" height="6" rx="2" fill="#fbbf24" opacity="0.9"/>
  <rect x="222" y="144" width="4"  height="6" rx="1.5" fill="#e2e8f0" opacity="0.35"/>
  <rect x="230" y="144" width="48" height="6" rx="2" fill="#2dd4bf" opacity="0.7"/>
  <!-- Active line highlight -->
  <rect x="188" y="153" width="138" height="10" rx="2" fill="#0d9488" opacity="0.22"/>
  <rect x="192" y="154" width="22" height="7"  rx="2" fill="#2dd4bf"/>
  <rect x="218" y="154" width="10" height="7"  rx="2" fill="#e2e8f0" opacity="0.5"/>
  <rect x="232" y="154" width="40" height="7"  rx="2" fill="#fbbf24" opacity="0.95"/>
  <rect x="276" y="154" width="2"  height="7"  rx="1" fill="#2dd4bf"/>
  <rect x="200" y="164" width="52" height="6" rx="2" fill="#e2e8f0" opacity="0.28"/>
  <rect x="192" y="174" width="92" height="6" rx="2" fill="#94a3b8" opacity="0.26"/>
  <rect x="200" y="184" width="24" height="6" rx="2" fill="#2dd4bf" opacity="0.7"/>
  <rect x="228" y="184" width="38" height="6" rx="2" fill="#fbbf24" opacity="0.65"/>
  <rect x="192" y="194" width="18" height="6" rx="2" fill="#2dd4bf"/>
  <rect x="192" y="204" width="62" height="6" rx="2" fill="#94a3b8" opacity="0.22"/>
  <rect x="200" y="214" width="30" height="6" rx="2" fill="#fbbf24" opacity="0.75"/>
  <rect x="234" y="214" width="22" height="6" rx="2" fill="#e2e8f0" opacity="0.36"/>
  <rect x="200" y="224" width="20" height="6" rx="2" fill="#2dd4bf" opacity="0.72"/>
  <rect x="224" y="224" width="36" height="6" rx="2" fill="#fbbf24" opacity="0.6"/>
  <rect x="192" y="234" width="16" height="6" rx="2" fill="#2dd4bf" opacity="0.85"/>
  <rect x="192" y="244" width="78" height="6" rx="2" fill="#94a3b8" opacity="0.2"/>
  <!-- MINIMAP -->
  <rect x="332" y="100" width="38" height="152" fill="#030c12"/>
  <rect x="332" y="150" width="38" height="48"  fill="#0d9488" opacity="0.1"/>
  <rect x="335" y="106" width="20" height="2" rx="0.5" fill="#2dd4bf" opacity="0.3"/>
  <rect x="335" y="110" width="14" height="2" rx="0.5" fill="#fbbf24" opacity="0.28"/>
  <rect x="335" y="114" width="18" height="2" rx="0.5" fill="#e2e8f0" opacity="0.13"/>
  <rect x="335" y="118" width="22" height="2" rx="0.5" fill="#2dd4bf" opacity="0.22"/>
  <rect x="335" y="122" width="16" height="2" rx="0.5" fill="#fbbf24" opacity="0.22"/>
  <rect x="335" y="126" width="10" height="2" rx="0.5" fill="#94a3b8" opacity="0.17"/>
  <rect x="335" y="130" width="24" height="2" rx="0.5" fill="#2dd4bf" opacity="0.18"/>
  <rect x="335" y="134" width="14" height="2" rx="0.5" fill="#e2e8f0" opacity="0.12"/>
  <rect x="335" y="138" width="20" height="2" rx="0.5" fill="#fbbf24" opacity="0.22"/>
  <rect x="335" y="142" width="12" height="2" rx="0.5" fill="#94a3b8" opacity="0.15"/>
  <rect x="335" y="146" width="26" height="2" rx="0.5" fill="#2dd4bf" opacity="0.2"/>
  <rect x="335" y="150" width="18" height="2" rx="0.5" fill="#fbbf24" opacity="0.24"/>
  <rect x="335" y="154" width="20" height="2" rx="0.5" fill="#2dd4bf" opacity="0.22"/>
  <rect x="335" y="158" width="14" height="2" rx="0.5" fill="#e2e8f0" opacity="0.14"/>
  <rect x="335" y="162" width="22" height="2" rx="0.5" fill="#fbbf24" opacity="0.22"/>
  <rect x="335" y="166" width="10" height="2" rx="0.5" fill="#94a3b8" opacity="0.15"/>
  <rect x="335" y="170" width="18" height="2" rx="0.5" fill="#2dd4bf" opacity="0.18"/>
  <rect x="335" y="174" width="24" height="2" rx="0.5" fill="#fbbf24" opacity="0.2"/>
  <rect x="335" y="178" width="16" height="2" rx="0.5" fill="#e2e8f0" opacity="0.12"/>
  <rect x="335" y="182" width="20" height="2" rx="0.5" fill="#2dd4bf" opacity="0.17"/>
  <rect x="335" y="186" width="12" height="2" rx="0.5" fill="#94a3b8" opacity="0.13"/>
  <rect x="335" y="190" width="22" height="2" rx="0.5" fill="#fbbf24" opacity="0.2"/>
  <rect x="335" y="194" width="8"  height="2" rx="0.5" fill="#2dd4bf" opacity="0.18"/>
  <rect x="335" y="198" width="18" height="2" rx="0.5" fill="#e2e8f0" opacity="0.11"/>
  <rect x="335" y="202" width="26" height="2" rx="0.5" fill="#2dd4bf" opacity="0.15"/>
  <rect x="335" y="206" width="14" height="2" rx="0.5" fill="#fbbf24" opacity="0.18"/>
  <rect x="335" y="210" width="20" height="2" rx="0.5" fill="#2dd4bf" opacity="0.15"/>
  <rect x="335" y="214" width="16" height="2" rx="0.5" fill="#94a3b8" opacity="0.12"/>
  <rect x="335" y="218" width="22" height="2" rx="0.5" fill="#fbbf24" opacity="0.17"/>
  <rect x="335" y="222" width="10" height="2" rx="0.5" fill="#2dd4bf" opacity="0.16"/>
  <rect x="335" y="226" width="18" height="2" rx="0.5" fill="#e2e8f0" opacity="0.1"/>
  <rect x="335" y="230" width="24" height="2" rx="0.5" fill="#fbbf24" opacity="0.16"/>
  <rect x="335" y="234" width="12" height="2" rx="0.5" fill="#2dd4bf" opacity="0.15"/>
  <rect x="335" y="238" width="20" height="2" rx="0.5" fill="#94a3b8" opacity="0.12"/>
  <rect x="335" y="242" width="16" height="2" rx="0.5" fill="#fbbf24" opacity="0.15"/>
  <rect x="335" y="246" width="22" height="2" rx="0.5" fill="#2dd4bf" opacity="0.14"/>

  <!-- ── VS CODE: STATUS BAR ── -->
  <rect x="72" y="252" width="298" height="14" rx="4" fill="#0d9488" opacity="0.82"/>
  <rect x="72" y="252" width="298" height="7"  fill="#0d9488" opacity="0.82"/>
  <rect x="78"  y="255" width="22" height="6" rx="1.5" fill="white" opacity="0.65"/>
  <rect x="104" y="255" width="16" height="6" rx="1.5" fill="white" opacity="0.5"/>
  <rect x="290" y="255" width="18" height="6" rx="1.5" fill="white" opacity="0.45"/>
  <rect x="312" y="255" width="24" height="6" rx="1.5" fill="white" opacity="0.42"/>
  <rect x="340" y="255" width="18" height="6" rx="1.5" fill="white" opacity="0.38"/>
  <rect x="362" y="255" width="14" height="6" rx="1.5" fill="white" opacity="0.35"/>

  <!-- ══ MESH OFFICE CHAIR ══ -->
  <!-- Chair back -->
  <rect x="374" y="192" width="54" height="100" rx="12" fill="#0d1e28"/>
  <!-- Mesh grid on back -->
  <rect x="380" y="198" width="42" height="88" rx="8" fill="none" stroke="#1a3548" stroke-width="1.2"/>
  <line x1="388" y1="198" x2="388" y2="286" stroke="#1a3548" stroke-width="0.9" opacity="0.55"/>
  <line x1="396" y1="198" x2="396" y2="286" stroke="#1a3548" stroke-width="0.9" opacity="0.55"/>
  <line x1="404" y1="198" x2="404" y2="286" stroke="#1a3548" stroke-width="0.9" opacity="0.55"/>
  <line x1="412" y1="198" x2="412" y2="286" stroke="#1a3548" stroke-width="0.9" opacity="0.55"/>
  <line x1="380" y1="212" x2="422" y2="212" stroke="#1a3548" stroke-width="0.9" opacity="0.55"/>
  <line x1="380" y1="226" x2="422" y2="226" stroke="#1a3548" stroke-width="0.9" opacity="0.55"/>
  <line x1="380" y1="240" x2="422" y2="240" stroke="#1a3548" stroke-width="0.9" opacity="0.55"/>
  <line x1="380" y1="254" x2="422" y2="254" stroke="#1a3548" stroke-width="0.9" opacity="0.55"/>
  <line x1="380" y1="268" x2="422" y2="268" stroke="#1a3548" stroke-width="0.9" opacity="0.55"/>
  <!-- Chair seat -->
  <rect x="362" y="279" width="78" height="24" rx="10" fill="#0f2430"/>
  <!-- Seat edge highlight -->
  <rect x="362" y="279" width="78" height="4"  rx="4"  fill="#1a3d55" opacity="0.5"/>
  <!-- Armrests -->
  <rect x="360" y="256" width="16" height="46" rx="6" fill="#0d1e28"/>
  <rect x="426" y="256" width="16" height="46" rx="6" fill="#0d1e28"/>
  <!-- Armrest pads -->
  <rect x="360" y="256" width="16" height="10" rx="5" fill="#1a3548"/>
  <rect x="426" y="256" width="16" height="10" rx="5" fill="#1a3548"/>
  <!-- Central column -->
  <rect x="388" y="302" width="28" height="44" rx="5" fill="#0a1620"/>
  <ellipse cx="402" cy="352" rx="33" ry="8" fill="#000" opacity="0.17"/>

  <!-- ══ PROGRAMMER ══ -->
  <!-- Left arm toward keyboard -->
  <path d="M377 248 Q344 268 316 280" stroke="#1c3545" stroke-width="20" stroke-linecap="round" fill="none"/>
  <!-- Right arm on armrest -->
  <path d="M424 248 Q438 261 434 277" stroke="#1c3545" stroke-width="20" stroke-linecap="round" fill="none"/>
  <!-- Hoodie body -->
  <rect x="373" y="210" width="58" height="68" rx="16" fill="#1c3545"/>
  <!-- Hoodie front kangaroo pocket -->
  <rect x="382" y="250" width="40" height="22" rx="6" fill="#162c3a"/>
  <path d="M402 250 L402 272" stroke="#1c3545" stroke-width="1" opacity="0.6"/>
  <!-- Hoodie collar V -->
  <path d="M391 210 L402 230 L413 210" fill="#0d9488" stroke="#2dd4bf" stroke-width="1.5"/>
  <!-- Neck -->
  <rect x="393" y="197" width="18" height="17" rx="7" fill="#f4b183"/>
  <!-- Head (oval) -->
  <ellipse cx="402" cy="180" rx="27" ry="29" fill="#f4b183"/>
  <!-- Ears -->
  <ellipse cx="375" cy="183" rx="7" ry="9"   fill="#e8a070"/>
  <ellipse cx="429" cy="183" rx="7" ry="9"   fill="#e8a070"/>
  <ellipse cx="375" cy="183" rx="4" ry="5.5" fill="#d4905a"/>
  <ellipse cx="429" cy="183" rx="4" ry="5.5" fill="#d4905a"/>
  <!-- Hair -->
  <path d="M375 178 Q375 150 402 148 Q429 150 429 178 Q424 160 402 159 Q380 160 375 178Z" fill="#2d1b0e"/>
  <path d="M390 153 Q402 148 414 153" stroke="#4a2e14" stroke-width="3" fill="none" stroke-linecap="round" opacity="0.4"/>
  <!-- Cheeks -->
  <ellipse cx="388" cy="187" rx="6" ry="3.5" fill="#f87171" opacity="0.17"/>
  <ellipse cx="416" cy="187" rx="6" ry="3.5" fill="#f87171" opacity="0.17"/>
  <!-- GLASSES (programmer look) -->
  <rect x="384" y="174" width="14" height="10" rx="5" fill="none" stroke="#374151" stroke-width="2"/>
  <rect x="402" y="174" width="14" height="10" rx="5" fill="none" stroke="#374151" stroke-width="2"/>
  <line x1="398" y1="179" x2="402" y2="179" stroke="#374151" stroke-width="1.8"/>
  <line x1="384" y1="179" x2="380" y2="177" stroke="#374151" stroke-width="1.8" stroke-linecap="round"/>
  <line x1="416" y1="179" x2="420" y2="177" stroke="#374151" stroke-width="1.8" stroke-linecap="round"/>
  <!-- Eyes (inside glass frames) -->
  <ellipse cx="391" cy="179" rx="5.5" ry="4.5" fill="white"/>
  <ellipse cx="409" cy="179" rx="5.5" ry="4.5" fill="white"/>
  <circle  cx="391" cy="179" r="3"   fill="#0d9488"/>
  <circle  cx="409" cy="179" r="3"   fill="#0d9488"/>
  <circle  cx="391" cy="179" r="1.7" fill="#1a2535"/>
  <circle  cx="409" cy="179" r="1.7" fill="#1a2535"/>
  <circle  cx="392.5" cy="177.5" r="1.1" fill="white"/>
  <circle  cx="410.5" cy="177.5" r="1.1" fill="white"/>
  <!-- Upper eyelid -->
  <path d="M386 176 Q391 173 396 176" stroke="#2d1b0e" stroke-width="1.8" fill="none" stroke-linecap="round"/>
  <path d="M404 176 Q409 173 414 176" stroke="#2d1b0e" stroke-width="1.8" fill="none" stroke-linecap="round"/>
  <!-- Eyebrows (above frames) -->
  <path d="M384 171 Q391 168 398 171" stroke="#2d1b0e" stroke-width="2.5" fill="none" stroke-linecap="round"/>
  <path d="M404 171 Q411 168 418 171" stroke="#2d1b0e" stroke-width="2.5" fill="none" stroke-linecap="round"/>
  <!-- Nose -->
  <path d="M399 186 Q402 189.5 405 186" stroke="#c4845a" stroke-width="1.5" fill="none" stroke-linecap="round" opacity="0.75"/>
  <!-- Smile -->
  <path d="M395 191 Q399 189 402 190 Q405 189 409 191" stroke="#c07850" stroke-width="1.5" fill="none" stroke-linecap="round"/>
  <path d="M394 192 Q402 199 410 192" stroke="#c07850" stroke-width="2.2" fill="none" stroke-linecap="round"/>
  <path d="M397 193 Q402 198.5 407 193 Q402 200 397 193Z" fill="white" opacity="0.65"/>

  <!-- ══ KEYBOARD (perspective) ══ -->
  <path d="M276 304 L398 304 L402 320 L272 320 Z" fill="#0f2430"/>
  <rect x="279" y="307" width="115" height="5"  rx="2" fill="#1a3548"/>
  <rect x="281" y="313" width="108" height="5"  rx="2" fill="#1a3548"/>
  <!-- Space bar highlight -->
  <rect x="308" y="313" width="52"  height="5"  rx="2" fill="#1e4560" opacity="0.8"/>
  <!-- Top edge lit -->
  <path d="M276 304 L398 304" stroke="#0d9488" stroke-width="1" opacity="0.32"/>

  <!-- ══ MOUSE ══ -->
  <rect x="414" y="298" width="26" height="36" rx="13" fill="#0f2430"/>
  <line x1="427" y1="298" x2="427" y2="320" stroke="#1a3548" stroke-width="2"/>
  <rect x="421" y="305" width="12" height="6"  rx="3"  fill="#1a3548"/>

  <!-- ══ COFFEE MUG (3D cylindrical) ══ -->
  <!-- Shadow -->
  <ellipse cx="212" cy="311" rx="22" ry="5" fill="#000" opacity="0.18"/>
  <!-- Mug body -->
  <rect x="194" y="272" width="36" height="36" rx="4" fill="url(#hmMug)"/>
  <!-- Left shadow strip -->
  <rect x="194" y="272" width="7"  height="36" rx="3" fill="#000" opacity="0.1"/>
  <!-- Right highlight strip -->
  <rect x="222" y="272" width="8"  height="36" rx="3" fill="white" opacity="0.06"/>
  <!-- Top ellipse (cylinder opening) -->
  <ellipse cx="212" cy="273" rx="18" ry="5.5" fill="#0b7068"/>
  <ellipse cx="212" cy="273" rx="14" ry="3.5" fill="#094e48"/>
  <!-- Coffee liquid inside -->
  <ellipse cx="212" cy="273" rx="12" ry="2.8" fill="#3d1c0a" opacity="0.92"/>
  <!-- Bottom ellipse -->
  <ellipse cx="212" cy="307" rx="17" ry="4"   fill="#094e48"/>
  <!-- Handle (D-curve bezier) -->
  <path d="M230 280 C250 280 254 286 254 290 C254 294 250 300 230 300"
        stroke="#0b7068" stroke-width="6" fill="none" stroke-linecap="round"/>
  <path d="M230 280 C246 280 250 286 250 290 C250 294 246 300 230 300"
        stroke="#18a898" stroke-width="2" fill="none" stroke-linecap="round" opacity="0.45"/>
  <!-- Side logo badge (teal circle) -->
  <circle cx="210" cy="289" r="6" fill="white" opacity="0.07"/>
  <!-- Top rim highlight -->
  <rect x="194" y="272" width="36" height="5"  rx="3" fill="white" opacity="0.1"/>
  <!-- Steam (wavy organic lines) -->
  <path d="M203 265 Q206 258 203 251 Q200 244 203 237" stroke="#2dd4bf" stroke-width="2"   fill="none" stroke-linecap="round" opacity="0.42"/>
  <path d="M212 263 Q215 256 212 249 Q209 242 212 235" stroke="#2dd4bf" stroke-width="2"   fill="none" stroke-linecap="round" opacity="0.38"/>
  <path d="M221 265 Q224 258 221 251 Q218 244 221 237" stroke="#2dd4bf" stroke-width="2"   fill="none" stroke-linecap="round" opacity="0.34"/>

  <!-- ══ DESK NOTEPAD ══ -->
  <rect x="148" y="300" width="44" height="30" rx="4" fill="#0e2838"/>
  <!-- Notepad binding line -->
  <rect x="148" y="300" width="4"  height="30" rx="2" fill="#fbbf24" opacity="0.5"/>
  <!-- Lines -->
  <rect x="156" y="306" width="30" height="3" rx="1" fill="#2dd4bf" opacity="0.18"/>
  <rect x="156" y="312" width="26" height="3" rx="1" fill="#2dd4bf" opacity="0.14"/>
  <rect x="156" y="318" width="32" height="3" rx="1" fill="#2dd4bf" opacity="0.14"/>
  <rect x="156" y="324" width="18" height="3" rx="1" fill="#2dd4bf" opacity="0.11"/>
  <!-- Pen clipped to notepad -->
  <rect x="188" y="297" width="3"  height="18" rx="1.5" fill="#fbbf24" opacity="0.65"/>
  <path d="M188 315 L191 315 L189.5 320 Z" fill="#fbbf24" opacity="0.65"/>

  <!-- ══ DECORATIVE ══ -->
  <text x="14" y="56" font-family="'Courier New',monospace" font-size="26" fill="#2dd4bf" opacity="0.18" font-weight="bold">&lt;/&gt;</text>
  <text x="452" y="48" font-family="'Courier New',monospace" font-size="22" fill="#fbbf24" opacity="0.18" font-weight="bold">{}</text>
  <circle cx="476" cy="86"  r="6" fill="#fbbf24" opacity="0.4"/>
  <circle cx="488" cy="102" r="4" fill="#2dd4bf" opacity="0.32"/>
  <circle cx="466" cy="106" r="4" fill="#fbbf24" opacity="0.26"/>
  <circle cx="22"  cy="360" r="5" fill="#2dd4bf" opacity="0.3"/>
  <circle cx="36"  cy="374" r="3.5" fill="#fbbf24" opacity="0.25"/>
  <circle cx="460" cy="356" r="2.5" fill="#2dd4bf" opacity="0.13"/>
  <circle cx="474" cy="356" r="2.5" fill="#2dd4bf" opacity="0.13"/>
  <circle cx="488" cy="356" r="2.5" fill="#2dd4bf" opacity="0.13"/>
  <circle cx="460" cy="370" r="2.5" fill="#2dd4bf" opacity="0.13"/>
  <circle cx="474" cy="370" r="2.5" fill="#2dd4bf" opacity="0.13"/>
  <circle cx="488" cy="370" r="2.5" fill="#2dd4bf" opacity="0.13"/>
  <ellipse cx="250" cy="452" rx="225" ry="14" fill="#2dd4bf" opacity="0.04"/>
</svg>
